# xmcd CD database file
#
# Track frame offsets:
#	150
#	21232
#	53699
#	64713
#	93729
#	110268
#	145028
#	181655
#	208272
#	227398
#
# Disc length: 3373 seconds
#
# Revision: 0
# Processed by: cddbd v1.5.2PL0 Copyright (c) Steve Scherf et al.
# Submitted via: CDex 1.70beta3
#
DISCID=7f0d2b0a
DTITLE=Soft Machine - Alive and Well Recorded In Paris CD2
DYEAR=1978
DGENRE=Jazz
TTITLE0=K's Riff
TTITLE1=The Nodder
TTITLE2=Two Down
TTITLE3=The Spraunce
TTITLE4=Song Of Aeolus
TTITLE5=Sideburn
TTITLE6=The Tale Of Taliesin
TTITLE7=Organic Matter - One Over The Eight
TTITLE8=Soft Space Part One
TTITLE9=Soft Space Part Two
EXTD=YEAR: 1978
EXTT0=
EXTT1=
EXTT2=
EXTT3=
EXTT4=
EXTT5=
EXTT6=
EXTT7=
EXTT8=
EXTT9=
PLAYORDER=
